<?xml version="1.0" encoding="UTF-8"?>
<svg width="21px" height="20px" viewBox="0 0 21 20" version="1.1" xmlns="http://www.w3.org/2000/svg" xmlns:xlink="http://www.w3.org/1999/xlink">
    <!-- Generator: sketchtool 59.1 (101010) - https://sketch.com -->
    <title>6DD6E605-8241-46C6-8290-B626866E90AC</title>
    <desc>Created with sketchtool.</desc>
    <defs>
        <circle id="path-1" cx="10.5" cy="10" r="10"></circle>
    </defs>
    <g id="Page-1" stroke="none" stroke-width="1" fill="none" fill-rule="evenodd">
        <g id="New_1.2-Prepaid_landing" transform="translate(-208.000000, -206.000000)">
            <g id="Group-3-Copy-2" transform="translate(192.000000, 190.000000)">
                <g id="Group-68" transform="translate(16.000000, 16.000000)">
                    <g id="Group-67">
                        <g id="Group-63">
                            <mask id="mask-2" fill="white">
                                <use xlink:href="#path-1"></use>
                            </mask>
                            <use id="Mask" fill="#D1A1FF" opacity="0.239769345" xlink:href="#path-1"></use>
                            <g mask="url(#mask-2)">
                                <g transform="translate(3.681818, 2.263158)">
                                    <rect id="Rectangle" fill="#454CFC" x="0.318181818" y="0.736842105" width="13" height="22" rx="2"></rect>
                                    <path d="M2.81818182,0.736842105 L10.8181818,0.736842105 L10.8181818,1.73684211 C10.8181818,2.28912686 10.3704666,2.73684211 9.81818182,2.73684211 L3.81818182,2.73684211 C3.26589707,2.73684211 2.81818182,2.28912686 2.81818182,1.73684211 L2.81818182,0.736842105 L2.81818182,0.736842105 Z" id="Rectangle" fill="#2C32DE"></path>
                                    <g id="Group-64" stroke-width="1" fill="none" transform="translate(0.318182, 4.736842)">
                                        <path d="M2.31359649,1.12781955 L10.8004386,1.12781955 C11.9050081,1.12781955 12.8004386,2.02325005 12.8004386,3.12781955 L12.8004386,12.6616541 C12.8004386,13.7662236 11.9050081,14.6616541 10.8004386,14.6616541 L2.31359649,14.6616541 C1.20902699,14.6616541 0.313596491,13.7662236 0.313596491,12.6616541 L0.313596491,3.12781955 C0.313596491,2.02325005 1.20902699,1.12781955 2.31359649,1.12781955 Z" id="Rectangle" fill="#454CFC"></path>
                                        <rect id="Rectangle" fill="#BA71FF" x="0.855263158" y="0.0563909774" width="11.4035088" height="11" rx="2"></rect>
                                        <path d="M7.67874646,3.29791077 L10.2956513,7.65941879 C10.4377254,7.89620892 10.3609428,8.20333905 10.1241527,8.34541313 C10.046445,8.39203775 9.95752678,8.41666667 9.86690481,8.41666667 L4.63309519,8.41666667 C4.35695281,8.41666667 4.13309519,8.19280904 4.13309519,7.91666667 C4.13309519,7.82604469 4.15772411,7.73712649 4.20434873,7.65941879 L6.82125354,3.29791077 C6.96332762,3.06112064 7.27045774,2.98433811 7.50724788,3.12641219 C7.57762268,3.16863707 7.63652158,3.22753597 7.67874646,3.29791077 Z" id="Triangle" fill="#FFFFFF" transform="translate(7.250000, 5.500000) rotate(90.000000) translate(-7.250000, -5.500000) "></path>
                                    </g>
                                </g>
                            </g>
                        </g>
                    </g>
                </g>
            </g>
        </g>
    </g>
</svg>