<?xml version="1.0" encoding="UTF-8"?>
<svg width="20px" height="20px" viewBox="0 0 20 20" version="1.1" xmlns="http://www.w3.org/2000/svg" xmlns:xlink="http://www.w3.org/1999/xlink">
    <!-- Generator: sketchtool 59.1 (101010) - https://sketch.com -->
    <title>C2E018E7-C963-4402-AD21-5C4DD0F571C1</title>
    <desc>Created with sketchtool.</desc>
    <g id="Page-1" stroke="none" stroke-width="1" fill="none" fill-rule="evenodd">
        <g id="New_1.2-Prepaid_landing" transform="translate(-20.000000, -43.000000)" fill="#181819">
            <g id="menu-icon-3" transform="translate(20.000000, 43.000000)">
                <g id="menu-icon-2" transform="translate(0.000000, 2.000000)">
                    <g id="menu-icon" transform="translate(8.000000, 8.000000) scale(-1, 1) translate(-8.000000, -8.000000) ">
                        <path d="M4.70028011,2.30926389e-14 L13.7441643,2.30926389e-14 C14.4991082,2.31760026e-14 15.1111111,0.612002919 15.1111111,1.36694678 C15.1111111,2.12189064 14.4991082,2.73389356 13.7441643,2.73389356 L4.70028011,2.73389356 C3.94533625,2.73389356 3.33333333,2.12189064 3.33333333,1.36694678 C3.33333333,0.612002919 3.94533625,2.34533645e-14 4.70028011,2.30926389e-14 Z" id="Rectangle-2"></path>
                        <path d="M1.36694678,6.58823529 L14.1330532,6.58823529 C14.8879971,6.58823529 15.5,7.20023821 15.5,7.95518207 C15.5,8.71012593 14.8879971,9.32212885 14.1330532,9.32212885 L1.36694678,9.32212885 C0.612002919,9.32212885 9.24539581e-17,8.71012593 0,7.95518207 C-9.24539581e-17,7.20023821 0.612002919,6.58823529 1.36694678,6.58823529 Z" id="Rectangle-2"></path>
                        <path d="M4.70028011,13.1764706 L13.7441643,13.1764706 C14.4991082,13.1764706 15.1111111,13.7884735 15.1111111,14.5434174 C15.1111111,15.2983612 14.4991082,15.9103641 13.7441643,15.9103641 L4.70028011,15.9103641 C3.94533625,15.9103641 3.33333333,15.2983612 3.33333333,14.5434174 C3.33333333,13.7884735 3.94533625,13.1764706 4.70028011,13.1764706 Z" id="Rectangle-2"></path>
                    </g>
                </g>
            </g>
        </g>
    </g>
</svg>